# xmcd
#
# Track frame offsets: 
#        150
#        11941
#        25397
#        37815
#        48526
#        60728
#        77882
#        92187
#        102522
#        111798
#        122370
#        132029
#        145408
#        156850
#        173294
#        184708
#        195182
#        206931
#        216674
#        228792
#        243662
#        252708
#        256314
#        272396
#        286137
#        296632
#        306542
#        318939
#        332151
#
# Disc length: 4571 seconds
#
# Revision: 0
# Processed by: cddbd v1.5.2PL0 Copyright (c) Steve Scherf et al.
# Submitted via: ExactAudioCopy v1.3
#
DISCID=af11d91d
DTITLE=Buddy Guy, Otis Rush, Ike Turne - Cobra Snakebite II [disk 1]
DYEAR=2009
DGENRE=Chicago Blues, Electric Blues
TTITLE0=All Your Love (I Miss Loving)
TTITLE1=This Is The End (Altenate Take)
TTITLE2=Roll Over Moneymaker
TTITLE3=I'm Gonna Forget About You
TTITLE4=Something Else
TTITLE5=Groaning The Blues (Take 3)
TTITLE6=The Way You Been Treating Me
TTITLE7=My Love
TTITLE8=Messed Up
TTITLE9=I'll Just Keep Walkin'
TTITLE10=Irma Lee
TTITLE11=She's a Good 'un (Take 4)
TTITLE12=Something Else
TTITLE13=I Can't Quit Your Baby (Take 3)
TTITLE14=Rock And Roll Boogie (Alternate
TTITLE15=Little Red Rooster
TTITLE16=Your Sure Can't Do (Alternate T
TTITLE17=Don't Leave Me
TTITLE18=Crying The Blues
TTITLE19=Three Times A Fool
TTITLE20=My Life Depends On You
TTITLE21=Studio Speech
TTITLE22=Double Trouble (Take 3)
TTITLE23=Call Me If You Need Me
TTITLE24=You've Got To Lose
TTITLE25=Fine Girl
TTITLE26=You Eat Too Much
TTITLE27=The Duke Walks
TTITLE28=Matchbox
EXTD=
EXTT0=
EXTT1=
EXTT2=
EXTT3=
EXTT4=
EXTT5=
EXTT6=
EXTT7=
EXTT8=
EXTT9=
EXTT10=
EXTT11=
EXTT12=
EXTT13=
EXTT14=
EXTT15=
EXTT16=
EXTT17=
EXTT18=
EXTT19=
EXTT20=
EXTT21=
EXTT22=
EXTT23=
EXTT24=
EXTT25=
EXTT26=
EXTT27=
EXTT28=
PLAYORDER=
